<?xml version="1.0" encoding="utf-8"?>
<!-- Generator: Adobe Illustrator 16.0.3, SVG Export Plug-In . SVG Version: 6.00 Build 0)  -->
<!DOCTYPE svg PUBLIC "-//W3C//DTD SVG 1.1//EN" "http://www.w3.org/Graphics/SVG/1.1/DTD/svg11.dtd">
<svg version="1.1" id="Layer_1" xmlns="http://www.w3.org/2000/svg" xmlns:xlink="http://www.w3.org/1999/xlink" x="0px" y="0px"
	 width="30px" height="30px" viewBox="0 0 30 30" enable-background="new 0 0 30 30" xml:space="preserve">
<circle fill="none" stroke="#000000" stroke-width="75" stroke-miterlimit="10" cx="2072.132" cy="1781.158" r="233.858"/>
<circle fill="none" stroke="#000000" stroke-width="60" stroke-miterlimit="10" cx="2661.591" cy="1285.094" r="233.858"/>
<g>
	<g>
		<defs>
			<rect id="SVGID_1_" x="-714.101" y="991.608" width="199.274" height="306.863"/>
		</defs>
		<clipPath id="SVGID_2_">
			<use xlink:href="#SVGID_1_"  overflow="visible"/>
		</clipPath>
		<g transform="matrix(1 0 0 1 -6.103516e-05 6.103516e-05)" clip-path="url(#SVGID_2_)">
			
				<image overflow="visible" width="802" height="1235" xlink:href="CDB023A6C92C5C78.jpg"  transform="matrix(0.2485 0 0 0.2485 -714.1006 991.6079)">
			</image>
		</g>
	</g>
</g>
<g>
	<g>
		<defs>
			<rect id="SVGID_3_" x="-1364.189" y="634.042" width="234.3" height="308.923"/>
		</defs>
		<clipPath id="SVGID_4_">
			<use xlink:href="#SVGID_3_"  overflow="visible"/>
		</clipPath>
		<g transform="matrix(1 0 0 1 -1.220703e-04 0)" clip-path="url(#SVGID_4_)">
			
				<image overflow="visible" width="876" height="1155" xlink:href="CDB023A6C92C5C7E.jpg"  transform="matrix(0.2675 0 0 0.2675 -1364.1895 634.0415)">
			</image>
		</g>
	</g>
</g>
<g>
	<g>
		<defs>
			<rect id="SVGID_5_" x="-1653.487" y="633.607" width="234.3" height="308.923"/>
		</defs>
		<clipPath id="SVGID_6_">
			<use xlink:href="#SVGID_5_"  overflow="visible"/>
		</clipPath>
		<g transform="matrix(1 0 0 1 0 0)" clip-path="url(#SVGID_6_)">
			
				<image overflow="visible" width="876" height="1155" xlink:href="CDB023A6C92C5C7A.jpg"  transform="matrix(0.2675 0 0 0.2675 -1653.4873 633.6069)">
			</image>
		</g>
	</g>
</g>
<line fill="none" stroke="#F4ED08" stroke-width="5" stroke-miterlimit="10" x1="-1635.918" y1="930.238" x2="-1635.918" y2="675.12"/>
<path fill="none" stroke="#F4ED08" stroke-width="5" stroke-miterlimit="10" d="M-1635.918,675.12
	c0-15.668,12.678-28.347,28.347-28.347"/>
<rect x="-1635.918" y="788.505" fill="none" stroke="#F4ED08" stroke-width="5" stroke-miterlimit="10" width="202.667" height="141.732"/>
<line fill="none" stroke="#F4ED08" stroke-width="5" stroke-miterlimit="10" x1="-1607.571" y1="646.773" x2="-1607.571" y2="660.946"/>
<line fill="none" stroke="#F4ED08" stroke-width="5" stroke-miterlimit="10" x1="-1635.918" y1="675.12" x2="-1621.745" y2="675.12"/>
<path fill="none" stroke="#F4ED08" stroke-width="5" stroke-miterlimit="10" d="M-1621.745,675.12
	c0-7.834,6.339-14.174,14.173-14.174"/>
<line fill="none" stroke="#F4ED08" stroke-width="5" stroke-miterlimit="10" x1="-1621.745" y1="675.12" x2="-1621.745" y2="810.505"/>
<circle fill="none" stroke="#F4ED08" stroke-width="5" stroke-miterlimit="10" cx="-1635.918" cy="788.505" r="28.347"/>
<line fill="none" stroke="#F4ED08" stroke-width="5" stroke-miterlimit="10" x1="-1635.918" y1="788.505" x2="-1621.745" y2="763.96"/>
<line fill="none" stroke="#F4ED08" stroke-width="5" stroke-miterlimit="10" x1="-1574.584" y1="930.238" x2="-1574.584" y2="646.773"/>
<line fill="none" stroke="#F4ED08" stroke-width="5" stroke-miterlimit="10" x1="-1588.757" y1="646.773" x2="-1574.583" y2="646.773"/>
<line fill="none" stroke="#F4ED08" stroke-width="5" stroke-miterlimit="10" x1="-1588.757" y1="646.773" x2="-1588.757" y2="782.159"/>
<circle fill="none" stroke="#F4ED08" stroke-width="5" stroke-miterlimit="10" cx="-1574.583" cy="930.238" r="28.347"/>
<path fill="none" stroke="#F4ED08" stroke-width="5" stroke-miterlimit="10" d="M-1574.584,788.505
	c0,78.34-12.678,141.732-28.346,141.732"/>
<circle fill="none" stroke="#F4ED08" stroke-width="5" stroke-miterlimit="10" cx="-1574.583" cy="675.12" r="28.347"/>
<circle fill="none" stroke="#F4ED08" stroke-width="5" stroke-miterlimit="10" cx="-1574.584" cy="703.466" r="28.346"/>
<line fill="none" stroke="#F4ED08" stroke-width="5" stroke-miterlimit="10" x1="-1574.584" y1="703.466" x2="-1588.757" y2="678.921"/>
<path fill="none" stroke="#F4ED08" stroke-width="5" stroke-miterlimit="10" d="M-1522.161,916.064
	c0,7.834-6.339,14.174-14.173,14.174"/>
<line fill="none" stroke="#F4ED08" stroke-width="5" stroke-miterlimit="10" x1="-1522.161" y1="646.773" x2="-1522.161" y2="916.064"/>
<path fill="none" stroke="#F4ED08" stroke-width="5" stroke-miterlimit="10" d="M-1536.333,930.238
	c-7.835,0-14.174-6.34-14.174-14.173"/>
<line fill="none" stroke="#F4ED08" stroke-width="5" stroke-miterlimit="10" x1="-1550.507" y1="646.773" x2="-1550.507" y2="916.064"/>
<path fill="none" stroke="#F4ED08" stroke-width="5" stroke-miterlimit="10" d="M-1477.918,660.947
	c0-7.834-6.339-14.173-14.173-14.173"/>
<line fill="none" stroke="#F4ED08" stroke-width="5" stroke-miterlimit="10" x1="-1477.918" y1="660.947" x2="-1477.918" y2="930.238"/>
<path fill="none" stroke="#F4ED08" stroke-width="5" stroke-miterlimit="10" d="M-1492.091,646.773
	c-7.835,0-14.174,6.339-14.174,14.173"/>
<line fill="none" stroke="#F4ED08" stroke-width="5" stroke-miterlimit="10" x1="-1506.265" y1="660.947" x2="-1506.265" y2="930.238"/>
<circle fill="none" stroke="#F4ED08" stroke-width="5" stroke-miterlimit="10" cx="-1477.917" cy="788.505" r="28.347"/>
<line fill="none" stroke="#F4ED08" stroke-width="5" stroke-miterlimit="10" x1="-1492.091" y1="660.946" x2="-1477.917" y2="660.946"/>
<line fill="none" stroke="#F4ED08" stroke-width="5" stroke-miterlimit="10" x1="-1492.091" y1="660.946" x2="-1492.091" y2="763.96"/>
<line fill="none" stroke="#F4ED08" stroke-width="5" stroke-miterlimit="10" x1="-1477.918" y1="788.505" x2="-1492.091" y2="763.96"/>
<line fill="none" stroke="#F4ED08" stroke-width="5" stroke-miterlimit="10" x1="-1492.091" y1="660.946" x2="-1506.264" y2="636.401"/>
<path fill="none" stroke="#F4ED08" stroke-width="5" stroke-miterlimit="10" d="M-1492.091,660.946
	c0-6.783-3.171-12.272-7.09-12.272"/>
<line fill="none" stroke="#F4ED08" stroke-width="5" stroke-miterlimit="10" x1="-1461.944" y1="646.773" x2="-1461.944" y2="930.238"/>
<line fill="none" stroke="#F4ED08" stroke-width="5" stroke-miterlimit="10" x1="-1447.772" y1="646.773" x2="-1447.772" y2="763.961"/>
<line fill="none" stroke="#F4ED08" stroke-width="5" stroke-miterlimit="10" x1="-1461.944" y1="788.506" x2="-1447.772" y2="763.961"/>
<line fill="none" stroke="#F4ED08" stroke-width="5" stroke-miterlimit="10" x1="-1461.944" y1="646.773" x2="-1447.772" y2="646.773"/>
<circle fill="none" stroke="#F4ED08" stroke-width="5" stroke-miterlimit="10" cx="-1461.943" cy="930.238" r="28.347"/>
<path fill="none" stroke="#F4ED08" stroke-width="5" stroke-miterlimit="10" d="M-1461.944,901.891
	c0,15.668,12.679,28.347,28.348,28.347"/>
<g>
	<path fill="none" stroke="#000000" stroke-width="5" stroke-linejoin="round" stroke-miterlimit="10" d="M-1541.698,1141.549
		c0,78.341-12.678,141.732-28.346,141.732"/>
	<polyline stroke="#000000" stroke-width="5" stroke-linejoin="round" stroke-miterlimit="10" points="-1541.698,1056.51 
		-1555.871,1031.965 -1555.871,999.817 -1541.698,999.817 -1541.698,1141.549 	"/>
</g>
<path fill="none" stroke="#F4ED08" stroke-width="5" stroke-linejoin="round" stroke-miterlimit="10" d="M-1414.138,1283.282"/>
<g>
	<polyline stroke="#000000" stroke-width="5" stroke-linejoin="round" stroke-miterlimit="10" points="-1442.485,1269.108 
		-1442.485,999.817 -1428.313,999.818 -1428.313,1117.005 -1442.485,1141.55 	"/>
	<path fill="none" stroke="#F4ED08" stroke-width="5" stroke-linejoin="round" stroke-miterlimit="10" d="M-1442.485,1254.935"/>
	<path fill="none" stroke="#000000" stroke-width="5" stroke-linejoin="round" stroke-miterlimit="10" d="M-1442.486,1269.108
		c0,7.834,6.339,14.173,14.173,14.173"/>
</g>
<path fill="none" stroke="#F4ED08" stroke-width="5" stroke-linejoin="round" stroke-miterlimit="10" d="M-1414.138,1283.282"/>
<g>
	<g>
		<path stroke="#000000" stroke-width="5" stroke-linejoin="round" stroke-miterlimit="10" d="M-1598.392,1141.549l14.173-24.545
			v-88.841c0-7.834,6.34-14.174,14.174-14.174v-14.173c-15.668,0-28.347,12.679-28.347,28.347v255.118"/>
	</g>
	
		<line fill="none" stroke="#000000" stroke-width="5" stroke-linejoin="round" stroke-miterlimit="10" x1="-1598.392" y1="1283.282" x2="-1598.392" y2="1285.951"/>
</g>
<g>
	<path stroke="#000000" stroke-width="5" stroke-linejoin="round" stroke-miterlimit="10" d="M-1456.659,1283.282v-269.291
		c0-7.828-6.346-14.174-14.174-14.174c-2.586,0-5.003,0.704-7.09,1.914v-0.014c3.919,0,7.091,5.489,7.091,12.272v103.015
		l14.173,24.545"/>
	
		<line stroke="#000000" stroke-width="5" stroke-linejoin="round" stroke-miterlimit="10" x1="-1485.006" y1="1013.991" x2="-1485.006" y2="1283.282"/>
	<path stroke="#000000" stroke-width="5" stroke-linejoin="round" stroke-miterlimit="10" d="M-1477.923,1001.728
		c-4.232,2.451-7.083,7.016-7.083,12.263"/>
	
		<line fill="none" stroke="#000000" stroke-width="5" stroke-linejoin="round" stroke-miterlimit="10" x1="-1485.006" y1="1283.282" x2="-1485.006" y2="1285.951"/>
	
		<line fill="none" stroke="#000000" stroke-width="5" stroke-linejoin="round" stroke-miterlimit="10" x1="-1456.659" y1="1283.282" x2="-1456.659" y2="1285.951"/>
</g>
<g>
	<path fill="none" stroke="#000000" stroke-width="5" stroke-linejoin="round" stroke-miterlimit="10" d="M-1499.179,1269.108
		c0,7.834-6.338,14.174-14.172,14.174"/>
	
		<line fill="none" stroke="#000000" stroke-width="5" stroke-linejoin="round" stroke-miterlimit="10" x1="-1499.179" y1="999.817" x2="-1499.179" y2="1269.108"/>
	<path fill="none" stroke="#000000" stroke-width="5" stroke-linejoin="round" stroke-miterlimit="10" d="M-1513.351,1283.282
		c-7.836,0-14.174-6.34-14.174-14.174"/>
	
		<line fill="none" stroke="#000000" stroke-width="5" stroke-linejoin="round" stroke-miterlimit="10" x1="-1527.524" y1="999.817" x2="-1527.524" y2="1269.108"/>
	
		<line fill="none" stroke="#000000" stroke-width="5" stroke-linejoin="round" stroke-miterlimit="10" x1="-1527.524" y1="997.148" x2="-1527.524" y2="999.817"/>
	
		<line fill="none" stroke="#000000" stroke-width="5" stroke-linejoin="round" stroke-miterlimit="10" x1="-1499.179" y1="997.148" x2="-1499.179" y2="999.817"/>
</g>
<polyline stroke="#000000" stroke-width="5" stroke-linejoin="round" stroke-miterlimit="10" points="631.896,1346.413 
	668.319,1346.413 646.067,1346.413 376.776,1346.413 376.778,1332.241 493.966,1332.241 518.511,1346.413 376.776,1346.413 
	374.107,1346.413 104.816,1346.413 60.313,1346.413 104.815,1360.585 207.83,1360.585 232.375,1346.413 60.313,1346.413 
	46.14,1346.413 -223.151,1346.413 -225.821,1346.413 -224.486,1346.413 -227.154,1346.413 -496.445,1346.413 -518.696,1346.413 
	-517.838,1346.413 -540.09,1346.413 -542.758,1346.413 -541.506,1346.413 -810.797,1346.413 -867.49,1346.413 -842.945,1332.24 
	-810.797,1332.24 -810.797,1346.413 -952.529,1346.413 -1111.847,1346.413 -1269.735,1346.413 -1245.19,1360.585 -1156.35,1360.585 
	-1134.098,1360.585 -1111.847,1346.413 -1156.35,1346.413 -1411.468,1346.413 -1414.138,1346.413 "/>
<text transform="matrix(1 0 0 1 -1175.1738 1407.936)" font-family="'MyriadPro-Regular'" font-size="50">f                                   i                                   u                                   m                                   e</text>
<path stroke="#000000" stroke-width="5" stroke-miterlimit="10" d="M-1182.606,1276.515"/>
<g>
	<path stroke="#000000" stroke-width="5" stroke-miterlimit="10" d="M-1296.364,1148.957"/>
	<path stroke="#000000" stroke-width="5" stroke-miterlimit="10" d="M-1282.191,1134.783c0,7.828-6.346,14.174-14.173,14.174
		v-113.386c0-15.668,12.678-28.347,28.347-28.347c3.912,0,7.086,3.172,7.086,7.086c0,3.914-3.174,7.086-7.086,7.086
		c-7.834,0-14.173,6.339-14.173,14.174L-1282.191,1134.783l0.001-10.371"/>
	
		<line stroke="#000000" stroke-width="5" stroke-linecap="round" stroke-miterlimit="10" x1="-1296.364" y1="1290.688" x2="-1296.364" y2="1148.957"/>
</g>
<g>
	<path stroke="#000000" stroke-width="5" stroke-miterlimit="10" d="M-1249.204,1013.668v25.705
		c0.001,7.828,6.347,14.174,14.174,14.174v-39.878c0-3.913-3.173-7.087-7.086-7.087
		C-1246.03,1006.581-1249.203,1009.755-1249.204,1013.668z"/>
	<path fill="none" stroke="#000000" stroke-width="5" stroke-linecap="round" stroke-miterlimit="10" d="M-1235.03,1148.957
		c0,78.277-3.173,141.732-7.086,141.732"/>
	<line stroke="#000000" stroke-width="5" stroke-miterlimit="10" x1="-1235.03" y1="1148.957" x2="-1235.03" y2="1053.545"/>
</g>
<g>
	
		<line stroke="#000000" stroke-width="5" stroke-linecap="round" stroke-miterlimit="10" x1="-1166.711" y1="1021.398" x2="-1166.711" y2="1290.689"/>
	<path stroke="#000000" stroke-width="5" stroke-linecap="round" stroke-miterlimit="10" d="M-1138.364,1148.957
		c-7.828,0-14.174-6.346-14.173-14.174l-0.001-113.386c0-6.783-3.171-12.272-7.09-12.272v-0.086v0.013
		c2.087-1.21,4.505-1.914,7.091-1.914c7.827,0,14.173,6.346,14.173,14.172v0.088v126.867"/>
	<path stroke="#000000" stroke-width="5" stroke-miterlimit="10" d="M-1159.628,1009.124h0.018
		c-4.241,2.448-7.101,7.019-7.101,12.273"/>
	
		<line stroke="#000000" stroke-width="5" stroke-linecap="round" stroke-miterlimit="10" x1="-1138.364" y1="1148.265" x2="-1138.364" y2="1290.689"/>
</g>
<g>
	<path fill="none" stroke="#000000" stroke-width="5" stroke-linecap="round" stroke-miterlimit="10" d="M-1122.391,1276.516
		c0,7.827,6.346,14.173,14.174,14.173"/>
	<path stroke="#000000" stroke-width="5" stroke-miterlimit="10" d="M-1122.391,1148.957c7.828,0,14.174-6.346,14.173-14.173
		v-120.56c0-3.913-3.173-7.087-7.086-7.087c-3.914,0-7.087,3.174-7.087,7.087v135.345"/>
	<line stroke="#000000" stroke-width="5" stroke-miterlimit="10" x1="-1122.391" y1="1148.957" x2="-1122.391" y2="1276.516"/>
</g>
<path stroke="#000000" stroke-width="5" stroke-miterlimit="10" d="M-940.606,1273.293"/>
<g>
	<path stroke="#000000" stroke-width="5" stroke-miterlimit="10" d="M-967.129,1287.467"/>
	
		<line stroke="#000000" stroke-width="5" stroke-linecap="round" stroke-miterlimit="10" x1="-967.129" y1="1004.003" x2="-967.129" y2="1280.381"/>
	
		<line stroke="#000000" stroke-width="5" stroke-linecap="round" stroke-miterlimit="10" x1="-981.303" y1="1004.002" x2="-981.303" y2="1280.381"/>
	<path fill="none" stroke="#000000" stroke-width="5" stroke-miterlimit="10" d="M-967.129,1280.381
		c0,3.914-3.173,7.088-7.087,7.088c-3.913,0-7.086-3.174-7.086-7.088"/>
</g>
<g>
	<path stroke="#000000" stroke-width="5" stroke-miterlimit="10" d="M-1054.364,1145.735"/>
	<path stroke="#000000" stroke-width="5" stroke-miterlimit="10" d="M-1040.191,1131.561c0,7.828-6.346,14.174-14.173,14.174
		v-113.386c0-15.668,12.678-28.347,28.347-28.347c3.912,0,7.086,3.172,7.086,7.086c0,3.914-3.174,7.086-7.086,7.086
		c-7.834,0-14.173,6.339-14.173,14.174L-1040.191,1131.561l0.001-10.371"/>
	
		<line stroke="#000000" stroke-width="5" stroke-linecap="round" stroke-miterlimit="10" x1="-1054.364" y1="1287.466" x2="-1054.364" y2="1145.735"/>
</g>
<g>
	<path stroke="#000000" stroke-width="5" stroke-miterlimit="10" d="M-1007.204,1010.446v25.705
		c0.001,7.828,6.347,14.174,14.174,14.174v-39.878c0-3.913-3.173-7.087-7.086-7.087
		C-1004.03,1003.359-1007.203,1006.533-1007.204,1010.446z"/>
	<path fill="none" stroke="#000000" stroke-width="5" stroke-linecap="round" stroke-miterlimit="10" d="M-993.03,1145.735
		c0,78.277-3.173,141.732-7.086,141.732"/>
	<line stroke="#000000" stroke-width="5" stroke-miterlimit="10" x1="-993.03" y1="1145.735" x2="-993.03" y2="1050.324"/>
</g>
<g>
	
		<line stroke="#000000" stroke-width="5" stroke-linecap="round" stroke-miterlimit="10" x1="-955.401" y1="1018.176" x2="-955.401" y2="1287.467"/>
	<path stroke="#000000" stroke-width="5" stroke-linecap="round" stroke-miterlimit="10" d="M-927.055,1145.735
		c-7.828,0-14.174-6.346-14.173-14.174c0,0,0-113.386-0.001-113.386c0-6.783-3.171-12.272-7.09-12.272v-0.086v0.013
		c2.087-1.21,4.505-1.914,7.091-1.914c7.827,0,14.173,6.346,14.173,14.172v0.088v126.867"/>
	<path stroke="#000000" stroke-width="5" stroke-miterlimit="10" d="M-948.318,1005.902h0.018
		c-4.241,2.448-7.101,7.019-7.101,12.273"/>
	
		<line stroke="#000000" stroke-width="5" stroke-linecap="round" stroke-miterlimit="10" x1="-927.055" y1="1145.043" x2="-927.055" y2="1287.467"/>
</g>
<g>
	<path fill="none" stroke="#000000" stroke-width="5" stroke-linecap="round" stroke-miterlimit="10" d="M-915.327,1273.294
		c0,7.827,6.346,14.173,14.174,14.173"/>
	<path stroke="#000000" stroke-width="5" stroke-miterlimit="10" d="M-915.327,1145.735c7.828,0,14.174-6.346,14.173-14.173v-120.56
		c0-3.913-3.173-7.087-7.086-7.087c-3.914,0-7.087,3.174-7.087,7.087v135.345"/>
	<line stroke="#000000" stroke-width="5" stroke-miterlimit="10" x1="-915.327" y1="1145.735" x2="-915.327" y2="1273.294"/>
</g>
<g>
	<path fill="none" stroke="#000000" stroke-width="5" stroke-linecap="round" stroke-linejoin="round" stroke-miterlimit="10" d="
		M-1189.692,1278.462c0,7.834-6.338,14.174-14.172,14.174"/>
	
		<line fill="none" stroke="#000000" stroke-width="5" stroke-linecap="round" stroke-linejoin="round" stroke-miterlimit="10" x1="-1189.692" y1="1009.171" x2="-1189.692" y2="1278.462"/>
	<path fill="none" stroke="#000000" stroke-width="5" stroke-linecap="round" stroke-linejoin="round" stroke-miterlimit="10" d="
		M-1203.864,1292.636c-7.836,0-14.174-6.34-14.174-14.174"/>
	
		<line fill="none" stroke="#000000" stroke-width="5" stroke-linecap="round" stroke-linejoin="round" stroke-miterlimit="10" x1="-1218.038" y1="1009.171" x2="-1218.038" y2="1278.462"/>
	
		<line fill="none" stroke="#000000" stroke-width="5" stroke-linecap="round" stroke-linejoin="round" stroke-miterlimit="10" x1="-1218.038" y1="1006.502" x2="-1218.038" y2="1009.171"/>
	
		<line fill="none" stroke="#000000" stroke-width="5" stroke-linecap="round" stroke-linejoin="round" stroke-miterlimit="10" x1="-1189.692" y1="1006.502" x2="-1189.692" y2="1009.171"/>
</g>
<path fill="none" stroke="#F4ED08" stroke-width="5" stroke-linejoin="round" stroke-miterlimit="10" d="M-217.939,1258.478"/>
<polyline stroke="#000000" stroke-width="5" stroke-linecap="round" stroke-linejoin="round" stroke-miterlimit="10" points="
	-246.287,1244.304 -246.287,975.013 -232.115,975.014 -232.115,1092.202 -246.287,1116.747 "/>
<path fill="none" stroke="#F4ED08" stroke-width="5" stroke-linecap="round" stroke-linejoin="round" stroke-miterlimit="10" d="
	M-246.287,1230.131"/>
<path fill="none" stroke="#000000" stroke-width="5" stroke-linecap="round" stroke-linejoin="round" stroke-miterlimit="10" d="
	M-246.288,1247.304c0,7.834,6.339,14.173,14.173,14.173"/>
<path fill="none" stroke="#F4ED08" stroke-width="5" stroke-linejoin="round" stroke-miterlimit="10" d="M-217.939,1258.478"/>
<g>
	<g>
		<path stroke="#000000" stroke-width="5" stroke-linecap="round" stroke-linejoin="round" stroke-miterlimit="10" d="
			M-402.193,1116.746l14.173-24.545v-88.841c0-7.834,6.34-14.174,14.174-14.174v-14.173c-15.668,0-28.347,12.679-28.347,28.347
			v255.118"/>
	</g>
	
		<line fill="none" stroke="#000000" stroke-width="5" stroke-linecap="round" stroke-linejoin="round" stroke-miterlimit="10" x1="-402.193" y1="1258.478" x2="-402.193" y2="1261.147"/>
</g>
<g>
	<path stroke="#000000" stroke-width="5" stroke-linecap="round" stroke-linejoin="round" stroke-miterlimit="10" d="
		M-260.461,1258.478V989.187c0-7.828-6.346-14.174-14.174-14.174c-2.586,0-5.003,0.704-7.09,1.914v-0.014
		c3.919,0,7.091,5.489,7.091,12.272v103.015l14.173,24.545"/>
	
		<line stroke="#000000" stroke-width="5" stroke-linecap="round" stroke-linejoin="round" stroke-miterlimit="10" x1="-288.808" y1="989.187" x2="-288.808" y2="1258.478"/>
	<path stroke="#000000" stroke-width="5" stroke-linecap="round" stroke-linejoin="round" stroke-miterlimit="10" d="
		M-281.725,976.924c-4.232,2.451-7.083,7.016-7.083,12.263"/>
	
		<line fill="none" stroke="#000000" stroke-width="5" stroke-linecap="round" stroke-linejoin="round" stroke-miterlimit="10" x1="-288.808" y1="1258.478" x2="-288.808" y2="1261.147"/>
	
		<line fill="none" stroke="#000000" stroke-width="5" stroke-linecap="round" stroke-linejoin="round" stroke-miterlimit="10" x1="-260.461" y1="1258.478" x2="-260.461" y2="1261.147"/>
</g>
<g>
	<path fill="none" stroke="#000000" stroke-width="5" stroke-linecap="round" stroke-linejoin="round" stroke-miterlimit="10" d="
		M-302.98,1247.304c0,7.834-6.338,14.174-14.172,14.174"/>
	
		<line fill="none" stroke="#000000" stroke-width="5" stroke-linecap="round" stroke-linejoin="round" stroke-miterlimit="10" x1="-302.98" y1="978.013" x2="-302.98" y2="1247.304"/>
	<path fill="none" stroke="#000000" stroke-width="5" stroke-linecap="round" stroke-linejoin="round" stroke-miterlimit="10" d="
		M-317.152,1261.478c-7.836,0-14.174-6.34-14.174-14.174"/>
	
		<line fill="none" stroke="#000000" stroke-width="5" stroke-linecap="round" stroke-linejoin="round" stroke-miterlimit="10" x1="-331.326" y1="978.013" x2="-331.326" y2="1247.304"/>
	
		<line fill="none" stroke="#000000" stroke-width="5" stroke-linecap="round" stroke-linejoin="round" stroke-miterlimit="10" x1="-331.326" y1="975.344" x2="-331.326" y2="978.013"/>
	
		<line fill="none" stroke="#000000" stroke-width="5" stroke-linecap="round" stroke-linejoin="round" stroke-miterlimit="10" x1="-302.98" y1="975.344" x2="-302.98" y2="978.013"/>
</g>
<path stroke="#000000" stroke-width="5" stroke-linejoin="round" stroke-miterlimit="10" d="M-345.5,981.779v49.927l-14.173-24.545
	v-25.382c0.001-3.914,3.174-7.088,7.088-7.088C-348.672,974.691-345.499,977.865-345.5,981.779z"/>
<line stroke="#000000" stroke-width="5" stroke-linejoin="round" stroke-miterlimit="10" x1="-345.5" y1="1031.707" x2="-345.5" y2="1119.746"/>
<path fill="none" stroke="#000000" stroke-width="5" stroke-linecap="round" stroke-miterlimit="10" d="M-345.5,1119.746
	c0,78.277-3.173,141.732-7.086,141.732"/>
<line fill="none" stroke="#000000" stroke-width="5" stroke-linecap="round" stroke-linejoin="round" stroke-miterlimit="10" x1="-246.288" y1="1247.304" x2="-246.287" y2="1244.304"/>
<path fill="none" stroke="#F4ED08" stroke-width="5" stroke-linejoin="round" stroke-miterlimit="10" d="M133.775-162.996"/>
<polyline stroke="#000000" stroke-width="5" stroke-linecap="round" stroke-linejoin="round" stroke-miterlimit="10" points="
	105.428,-177.17 105.428,-446.461 119.6,-446.46 119.6,-329.272 105.428,-304.728 "/>
<path fill="none" stroke="#F4ED08" stroke-width="5" stroke-linecap="round" stroke-linejoin="round" stroke-miterlimit="10" d="
	M105.428-191.343"/>
<path fill="none" stroke="#000000" stroke-width="5" stroke-linecap="round" stroke-linejoin="round" stroke-miterlimit="10" d="
	M105.427-174.17c0,7.834,6.339,14.173,14.173,14.173"/>
<path fill="none" stroke="#F4ED08" stroke-width="5" stroke-linejoin="round" stroke-miterlimit="10" d="M133.775-162.996"/>
<g>
	<g>
		<path stroke="#000000" stroke-width="5" stroke-linecap="round" stroke-linejoin="round" stroke-miterlimit="10" d="
			M-50.479-304.729l14.173-24.545v-88.841c0-7.834,6.34-14.174,14.174-14.174v-14.173c-15.668,0-28.347,12.679-28.347,28.347
			v255.118"/>
	</g>
	
		<line stroke="#000000" stroke-width="5" stroke-linecap="round" stroke-linejoin="round" stroke-miterlimit="10" x1="-50.479" y1="-162.996" x2="-50.479" y2="-160.327"/>
</g>
<g>
	<path stroke="#000000" stroke-width="5" stroke-linecap="round" stroke-linejoin="round" stroke-miterlimit="10" d="
		M91.254-162.996v-269.291c0-7.828-6.346-14.174-14.174-14.174c-2.586,0-5.003,0.704-7.09,1.914v-0.014
		c3.919,0,7.091,5.489,7.091,12.272v103.015l14.173,24.545"/>
	
		<line stroke="#000000" stroke-width="5" stroke-linecap="round" stroke-linejoin="round" stroke-miterlimit="10" x1="62.907" y1="-432.287" x2="62.907" y2="-162.996"/>
	<path stroke="#000000" stroke-width="5" stroke-linecap="round" stroke-linejoin="round" stroke-miterlimit="10" d="M69.99-444.55
		c-4.232,2.451-7.083,7.016-7.083,12.263"/>
	
		<line stroke="#000000" stroke-width="5" stroke-linecap="round" stroke-linejoin="round" stroke-miterlimit="10" x1="62.907" y1="-162.996" x2="62.907" y2="-160.327"/>
	
		<line stroke="#000000" stroke-width="5" stroke-linecap="round" stroke-linejoin="round" stroke-miterlimit="10" x1="91.254" y1="-162.996" x2="91.254" y2="-160.327"/>
</g>
<g>
	<path fill="none" stroke="#000000" stroke-width="5" stroke-linecap="round" stroke-linejoin="round" stroke-miterlimit="10" d="
		M48.734-174.17c0,7.834-6.338,14.174-14.172,14.174"/>
	
		<line fill="none" stroke="#000000" stroke-width="5" stroke-linecap="round" stroke-linejoin="round" stroke-miterlimit="10" x1="48.734" y1="-443.461" x2="48.734" y2="-174.17"/>
	<path fill="none" stroke="#000000" stroke-width="5" stroke-linecap="round" stroke-linejoin="round" stroke-miterlimit="10" d="
		M34.562-159.996c-7.836,0-14.174-6.34-14.174-14.174"/>
	
		<line fill="none" stroke="#000000" stroke-width="5" stroke-linecap="round" stroke-linejoin="round" stroke-miterlimit="10" x1="20.389" y1="-443.461" x2="20.389" y2="-174.17"/>
	
		<line fill="none" stroke="#000000" stroke-width="5" stroke-linecap="round" stroke-linejoin="round" stroke-miterlimit="10" x1="20.389" y1="-446.13" x2="20.389" y2="-443.461"/>
	
		<line fill="none" stroke="#000000" stroke-width="5" stroke-linecap="round" stroke-linejoin="round" stroke-miterlimit="10" x1="48.734" y1="-446.13" x2="48.734" y2="-443.461"/>
</g>
<path stroke="#000000" stroke-width="5" stroke-linejoin="round" stroke-miterlimit="10" d="M6.215-439.695v49.928l-14.173-24.545
	v-25.383c0.001-3.914,3.174-7.088,7.088-7.088C3.043-446.783,6.216-443.609,6.215-439.695z"/>
<line stroke="#000000" stroke-width="5" stroke-linejoin="round" stroke-miterlimit="10" x1="6.215" y1="-389.768" x2="6.215" y2="-301.729"/>
<path fill="none" stroke="#000000" stroke-width="5" stroke-linecap="round" stroke-miterlimit="10" d="M6.215-301.729
	c0,78.277-3.173,141.732-7.086,141.732"/>
<line fill="none" stroke="#000000" stroke-width="5" stroke-linecap="round" stroke-linejoin="round" stroke-miterlimit="10" x1="105.427" y1="-174.17" x2="105.428" y2="-177.17"/>
<path fill="none" stroke="#F4ED08" stroke-width="5" stroke-linejoin="round" stroke-miterlimit="10" d="M-101.312,577.458"/>
<path fill="none" stroke="#F4ED08" stroke-width="5" stroke-linecap="round" stroke-linejoin="round" stroke-miterlimit="10" d="
	M-84.751,586.189"/>
<path fill="none" stroke="#F4ED08" stroke-width="5" stroke-linejoin="round" stroke-miterlimit="10" d="M-101.312,577.458"/>
<g>
	<g>
		<path stroke="#000000" stroke-width="5" stroke-linecap="round" stroke-linejoin="round" stroke-miterlimit="10" d="
			M-640.349,525.271l-20.041-20.043l-85.812-22.994c-7.568-2.028-12.052-9.792-10.022-17.36l-13.69-3.668
			c-4.056,15.134,4.91,30.663,20.044,34.718l246.425,66.029"/>
	</g>
	
		<line fill="none" stroke="#000000" stroke-width="5" stroke-linecap="round" stroke-linejoin="round" stroke-miterlimit="10" x1="-503.446" y1="561.953" x2="-500.868" y2="562.644"/>
</g>
<g>
	<path stroke="#000000" stroke-width="5" stroke-linejoin="round" stroke-miterlimit="10" d="M-536.9,416.659l43.238,24.964
		l-28.343,0.001l-21.982-12.691c-3.389-1.958-4.552-6.292-2.595-9.682S-540.29,414.701-536.9,416.659z"/>
	
		<line stroke="#000000" stroke-width="5" stroke-linejoin="round" stroke-miterlimit="10" x1="-493.662" y1="441.623" x2="-417.417" y2="485.642"/>
	<path fill="none" stroke="#000000" stroke-width="5" stroke-linecap="round" stroke-miterlimit="10" d="M-417.417,485.642
		c67.789,39.139,121.156,73.614,119.2,77.003"/>
</g>
<g>
	<polyline stroke="#000000" stroke-width="5" stroke-linecap="round" stroke-linejoin="round" stroke-miterlimit="10" points="
		274.432,544.362 534.548,474.664 538.214,488.353 425.021,518.684 397.645,511.347 	"/>
	<path fill="none" stroke="#000000" stroke-width="5" stroke-linecap="round" stroke-linejoin="round" stroke-miterlimit="10" d="
		M271.534,545.137c-7.566,2.028-12.049,9.791-10.022,17.358"/>
	
		<line fill="none" stroke="#000000" stroke-width="5" stroke-linecap="round" stroke-linejoin="round" stroke-miterlimit="10" x1="271.534" y1="545.137" x2="274.432" y2="544.362"/>
</g>
<path fill="none" stroke="#F4ED08" stroke-width="5" stroke-linejoin="round" stroke-miterlimit="10" d="M21.797,691.542"/>
<path fill="none" stroke="#F4ED08" stroke-width="5" stroke-linecap="round" stroke-linejoin="round" stroke-miterlimit="10" d="
	M116.7,897.195"/>
<path fill="none" stroke="#F4ED08" stroke-width="5" stroke-linejoin="round" stroke-miterlimit="10" d="M21.797,691.542"/>
<g>
	
		<line stroke="#000000" stroke-width="5" stroke-linecap="round" stroke-linejoin="round" stroke-miterlimit="10" x1="71.628" y1="658.696" x2="-197.664" y2="658.696"/>
	
		<line fill="none" stroke="#000000" stroke-width="5" stroke-linecap="round" stroke-linejoin="round" stroke-miterlimit="10" x1="-197.664" y1="658.696" x2="-200.332" y2="658.696"/>
</g>
<polyline stroke="#000000" stroke-width="5" stroke-linecap="round" stroke-linejoin="round" stroke-miterlimit="10" points="
	-661.196,658.696 -685.742,644.523 -774.582,644.523 -808.03,644.523 -808.03,658.696 -774.582,658.696 -519.465,658.696 
	-516.796,658.696 "/>
<g>
	<g>
		<path stroke="#000000" stroke-width="5" stroke-linejoin="round" stroke-miterlimit="10" d="M-516.796,658.696h49.928
			l-24.545,14.173h-25.384c-3.913-0.001-7.087-3.173-7.087-7.087C-523.884,661.868-520.711,658.695-516.796,658.696z"/>
		
			<line stroke="#000000" stroke-width="5" stroke-linejoin="round" stroke-miterlimit="10" x1="-466.868" y1="658.696" x2="-378.829" y2="658.696"/>
	</g>
	
		<line fill="none" stroke="#000000" stroke-width="5" stroke-linecap="round" stroke-linejoin="round" stroke-miterlimit="10" x1="-378.829" y1="658.696" x2="-237.097" y2="658.696"/>
</g>
<g>
	
		<polyline fill="none" stroke="#000000" stroke-width="10" stroke-linecap="round" stroke-linejoin="round" stroke-miterlimit="10" points="
		-516.796,656.696 -514.128,656.696 -244.836,656.696 	"/>
	
		<polyline fill="none" stroke="#000000" stroke-width="10" stroke-linecap="round" stroke-linejoin="round" stroke-miterlimit="10" points="
		71.628,656.696 68.959,656.696 -200.332,656.696 	"/>
	
		<line fill="none" stroke="#000000" stroke-width="10" stroke-linecap="round" stroke-linejoin="round" stroke-miterlimit="10" x1="-244.836" y1="656.696" x2="-200.332" y2="656.696"/>
</g>
<g>
	<polyline stroke="#000000" stroke-width="5" stroke-linecap="round" stroke-linejoin="round" stroke-miterlimit="10" points="
		388.619,658.697 657.911,658.698 657.909,672.869 540.723,672.87 516.178,658.698 	"/>
	
		<line fill="none" stroke="#000000" stroke-width="5" stroke-linecap="round" stroke-linejoin="round" stroke-miterlimit="10" x1="385.62" y1="658.696" x2="388.619" y2="658.697"/>
	
		<line fill="none" stroke="#000000" stroke-width="5" stroke-linecap="round" stroke-linejoin="round" stroke-miterlimit="10" x1="363.51" y1="658.697" x2="385.62" y2="658.697"/>
</g>
<g>
	
		<line stroke="#000000" stroke-width="5" stroke-linecap="round" stroke-linejoin="round" stroke-miterlimit="10" x1="363.51" y1="658.696" x2="366.178" y2="658.696"/>
	<polyline stroke="#000000" stroke-width="5" stroke-linecap="round" stroke-linejoin="round" stroke-miterlimit="10" points="
		221.776,658.697 197.232,672.869 94.218,672.87 72.107,658.697 94.218,658.696 363.51,658.696 	"/>
</g>
<text transform="matrix(1 0 0 1 -662.4141 905.9355)" font-family="'Helvetica-Light'" font-size="40">f                         i                         u                         m                         e</text>
<g>
	
		<line stroke="#777777" stroke-width="5" stroke-linecap="round" stroke-linejoin="round" stroke-miterlimit="10" x1="82.628" y1="862.57" x2="-186.664" y2="862.57"/>
	
		<line fill="none" stroke="#777777" stroke-width="5" stroke-linecap="round" stroke-linejoin="round" stroke-miterlimit="10" x1="-186.664" y1="862.57" x2="-189.332" y2="862.57"/>
</g>
<polyline fill="none" stroke="#DDDDDD" stroke-width="5" stroke-linecap="round" stroke-linejoin="round" stroke-miterlimit="10" points="
	-650.196,862.57 -674.742,848.397 -763.582,848.397 -797.03,848.397 -797.03,862.57 -763.582,862.57 -508.465,862.57 
	-505.796,862.57 "/>
<g>
	<g>
		<path fill="none" stroke="#BBBBBB" stroke-width="5" stroke-linejoin="round" stroke-miterlimit="10" d="M-505.796,862.57h49.928
			l-24.545,14.173h-25.384c-3.913-0.001-7.087-3.173-7.087-7.087C-512.884,865.742-509.711,862.569-505.796,862.57z"/>
		
			<line fill="none" stroke="#BBBBBB" stroke-width="5" stroke-linejoin="round" stroke-miterlimit="10" x1="-455.868" y1="862.57" x2="-367.829" y2="862.57"/>
	</g>
	
		<line fill="none" stroke="#BBBBBB" stroke-width="5" stroke-linecap="round" stroke-linejoin="round" stroke-miterlimit="10" x1="-367.829" y1="862.57" x2="-226.097" y2="862.57"/>
</g>
<g>
	
		<polyline fill="none" stroke="#999999" stroke-width="10" stroke-linecap="round" stroke-linejoin="round" stroke-miterlimit="10" points="
		-505.796,852.57 -503.128,852.57 -233.836,852.57 	"/>
	
		<polyline fill="none" stroke="#999999" stroke-width="10" stroke-linecap="round" stroke-linejoin="round" stroke-miterlimit="10" points="
		82.628,852.57 79.959,852.57 -189.332,852.57 	"/>
	
		<line fill="none" stroke="#999999" stroke-width="10" stroke-linecap="round" stroke-linejoin="round" stroke-miterlimit="10" x1="-233.836" y1="852.57" x2="-189.332" y2="852.57"/>
</g>
<g>
	
		<polyline fill="none" stroke="#555555" stroke-width="5" stroke-linecap="round" stroke-linejoin="round" stroke-miterlimit="10" points="
		399.619,862.571 668.911,862.572 668.909,876.743 551.723,876.744 527.178,862.572 	"/>
	
		<line fill="none" stroke="#555555" stroke-width="5" stroke-linecap="round" stroke-linejoin="round" stroke-miterlimit="10" x1="396.62" y1="862.57" x2="399.619" y2="862.571"/>
	
		<line fill="none" stroke="#555555" stroke-width="5" stroke-linecap="round" stroke-linejoin="round" stroke-miterlimit="10" x1="374.51" y1="862.571" x2="396.62" y2="862.571"/>
</g>
<g>
	
		<line fill="none" stroke="#777777" stroke-width="5" stroke-linecap="round" stroke-linejoin="round" stroke-miterlimit="10" x1="374.51" y1="862.57" x2="377.178" y2="862.57"/>
	
		<polyline fill="none" stroke="#777777" stroke-width="5" stroke-linecap="round" stroke-linejoin="round" stroke-miterlimit="10" points="
		232.776,862.571 208.232,876.743 105.218,876.744 83.107,862.571 105.218,862.57 374.51,862.57 	"/>
</g>
<g>
	<path stroke="#000000" stroke-width="5" stroke-linecap="round" stroke-linejoin="round" stroke-miterlimit="10" d="
		M239.666,559.337L62.814,356.258c-5.141-5.903-14.095-6.521-19.998-1.38c-1.95,1.698-3.312,3.816-4.088,6.1l-0.01-0.01
		c2.954-2.575,8.951-0.518,13.406,4.598l67.654,77.685l26.806,9.202"/>
	
		<line fill="none" stroke="#000000" stroke-width="5" stroke-linecap="round" stroke-linejoin="round" stroke-miterlimit="10" x1="239.666" y1="559.337" x2="241.419" y2="561.35"/>
</g>
<g>
	<g>
		
			<line stroke="#000000" stroke-width="5" stroke-linecap="round" stroke-linejoin="round" stroke-miterlimit="10" x1="27.104" y1="372.55" x2="-163.314" y2="562.968"/>
		
			<line fill="none" stroke="#000000" stroke-width="5" stroke-linecap="round" stroke-linejoin="round" stroke-miterlimit="10" x1="-163.314" y1="562.968" x2="-165.201" y2="564.855"/>
	</g>
	
		<line fill="none" stroke="#000000" stroke-width="5" stroke-linecap="round" stroke-linejoin="round" stroke-miterlimit="10" x1="37.107" y1="362.546" x2="27.104" y2="372.55"/>
</g>
<path fill="none" stroke="#000000" stroke-width="5" stroke-linecap="round" stroke-linejoin="round" stroke-miterlimit="10" d="
	M-403.802,366.67l1.887,1.887l190.418,190.417c4.106,3.845,8.618,5.928,13.607,5.928s8.916-1.5,13.607-5.928L6.136,368.558
	l1.887-1.887"/>
<line fill="none" stroke="#000000" stroke-width="10" stroke-linecap="round" stroke-linejoin="round" stroke-miterlimit="10" x1="71.628" y1="656.696" x2="94.276" y2="669.789"/>
<line fill="none" stroke="#000000" stroke-width="10" stroke-linecap="round" stroke-linejoin="round" stroke-miterlimit="10" x1="-516.796" y1="656.696" x2="-521.016" y2="664.07"/>
<rect x="-808.03" y="633.607" fill="none" stroke="#000000" stroke-linecap="round" stroke-linejoin="round" stroke-miterlimit="10" width="145.616" height="80.859"/>
<rect x="-523.884" y="633.607" fill="none" stroke="#000000" stroke-linecap="round" stroke-linejoin="round" stroke-miterlimit="10" width="57.016" height="98.206"/>
<rect x="-662.414" y="633.607" fill="none" stroke="#000000" stroke-linecap="round" stroke-linejoin="round" stroke-miterlimit="10" width="138.53" height="98.206"/>
<rect x="-466.868" y="632.733" fill="none" stroke="#000000" stroke-linecap="round" stroke-linejoin="round" stroke-miterlimit="10" width="538.496" height="98.206"/>
<rect x="71.629" y="632.733" fill="none" stroke="#000000" stroke-linecap="round" stroke-linejoin="round" stroke-miterlimit="10" width="142.276" height="98.206"/>
<rect x="213.904" y="633.607" fill="none" stroke="#000000" stroke-linecap="round" stroke-linejoin="round" stroke-miterlimit="10" width="302.273" height="98.206"/>
<rect x="516.178" y="633.127" fill="none" stroke="#000000" stroke-linecap="round" stroke-linejoin="round" stroke-miterlimit="10" width="141.733" height="98.206"/>
<rect x="-808.032" y="731.333" fill="none" stroke="#000000" stroke-width="0.7648" stroke-linecap="round" stroke-linejoin="round" stroke-miterlimit="10" width="1465.943" height="57.169"/>
<g>
	
		<image overflow="visible" width="922" height="548" xlink:href="CDB023A6C92C5C78.png"  transform="matrix(0.8072 0 0 0.8072 -2759.4546 18.3896)">
	</image>
</g>
<circle fill="none" stroke="#1D1D1B" stroke-width="5" stroke-miterlimit="10" cx="-1192.612" cy="-280.125" r="233.858"/>
<line fill="none" stroke="#1D1D1B" stroke-width="5" stroke-miterlimit="10" x1="-1192.612" y1="-280.126" x2="-960.412" y2="-442.715"/>
<line fill="none" stroke="#1D1D1B" stroke-width="5" stroke-miterlimit="10" x1="-1192.612" y1="-280.126" x2="-1095.662" y2="-546.496"/>
<line fill="none" stroke="#1D1D1B" stroke-width="5" stroke-miterlimit="10" x1="-1192.612" y1="-280.126" x2="-1171.612" y2="-520.154"/>
<line fill="none" stroke="#1D1D1B" stroke-width="5" stroke-miterlimit="10" x1="-1192.612" y1="-280.126" x2="-1389.982" y2="-141.926"/>
<line fill="none" stroke="#1D1D1B" stroke-width="5" stroke-miterlimit="10" x1="-1192.612" y1="-280.126" x2="-1275.021" y2="-53.712"/>
<line fill="none" stroke="#1D1D1B" stroke-width="5" stroke-miterlimit="10" x1="-1192.612" y1="-280.126" x2="-995.242" y2="-141.926"/>
<line fill="none" stroke="#F40F0F" stroke-width="6.0744" stroke-miterlimit="10" x1="-1192.612" y1="-280.126" x2="-836.988" y2="-280.126"/>
<circle fill="none" stroke="#1D1D1B" stroke-width="5.303" stroke-miterlimit="10" cx="-1192.612" cy="-280.125" r="248.031"/>
<circle fill="none" stroke="#1D1D1B" stroke-width="4.697" stroke-miterlimit="10" cx="-1192.612" cy="-280.126" r="219.685"/>
<circle fill="none" stroke="#1D1D1B" stroke-width="4.697" stroke-miterlimit="10" cx="-997.685" cy="-413.311" r="24.545"/>
<circle fill="none" stroke="#1D1D1B" stroke-width="4.697" stroke-miterlimit="10" cx="-1112.543" cy="-499.812" r="24.545"/>
<circle fill="none" stroke="#1D1D1B" stroke-width="4.697" stroke-miterlimit="10" cx="-1384.042" cy="-145.567" r="24.545"/>
<circle fill="none" stroke="#1D1D1B" stroke-width="4.697" stroke-miterlimit="10" cx="-1272.543" cy="-60.441" r="24.545"/>
<circle fill="none" stroke="#1D1D1B" stroke-width="4.697" stroke-miterlimit="10" cx="-1001.043" cy="-145.901" r="24.545"/>
<circle fill="none" stroke="#1D1D1B" stroke-width="5" stroke-miterlimit="10" cx="-455.54" cy="-537.247" r="233.858"/>
<line fill="none" stroke="#1D1D1B" stroke-width="5" stroke-miterlimit="10" x1="-455.54" y1="-537.248" x2="-358.59" y2="-803.618"/>
<circle fill="none" stroke="#1D1D1B" stroke-width="5.303" stroke-miterlimit="10" cx="-455.54" cy="-537.247" r="248.031"/>
<circle fill="none" stroke="#1D1D1B" stroke-width="4.697" stroke-miterlimit="10" cx="-455.54" cy="-537.248" r="219.685"/>
<circle fill="none" stroke="#1D1D1B" stroke-width="4.697" stroke-miterlimit="10" cx="-264.317" cy="-670.433" r="24.545"/>
<circle fill="none" stroke="#1D1D1B" stroke-width="4.697" stroke-miterlimit="10" cx="-375.471" cy="-756.933" r="24.545"/>
<circle fill="none" stroke="#1D1D1B" stroke-width="4.697" stroke-miterlimit="10" cx="-646.97" cy="-402.689" r="24.545"/>
<circle fill="none" stroke="#1D1D1B" stroke-width="4.697" stroke-miterlimit="10" cx="-535.471" cy="-317.563" r="24.545"/>
<circle fill="none" stroke="#1D1D1B" stroke-width="4.697" stroke-miterlimit="10" cx="-263.971" cy="-403.022" r="24.545"/>
<circle fill="none" stroke="#1D1D1B" stroke-width="4.697" stroke-miterlimit="10" cx="-435.317" cy="-770.218" r="24.545"/>
<line fill="none" stroke="#000000" stroke-width="5" stroke-miterlimit="10" x1="-221.682" y1="-537.247" x2="-235.855" y2="-537.248"/>
<line fill="none" stroke="#000000" stroke-width="5" stroke-miterlimit="10" x1="-221.682" y1="-537.247" x2="-207.509" y2="-537.247"/>
<circle fill="none" stroke="#1D1D1B" stroke-width="5" stroke-miterlimit="10" cx="-455.54" cy="-537.247" r="233.858"/>
<line fill="none" stroke="#1D1D1B" stroke-width="5" stroke-miterlimit="10" x1="-646.97" y1="-402.689" x2="-455.54" y2="-537.248"/>
<line fill="none" stroke="#000000" stroke-width="5" stroke-miterlimit="10" x1="-264.317" y1="-671.899" x2="-241.242" y2="-662.203"/>
<line fill="none" stroke="#000000" stroke-width="5" stroke-miterlimit="10" x1="-435.317" y1="-770.218" x2="-417.253" y2="-753.605"/>
<line fill="none" stroke="#000000" stroke-width="5" stroke-miterlimit="10" x1="-646.97" y1="-402.689" x2="-623.468" y2="-395.603"/>
<line fill="none" stroke="#000000" stroke-width="5" stroke-miterlimit="10" x1="-535.471" y1="-317.563" x2="-547.743" y2="-337.794"/>
<line fill="none" stroke="#1D1D1B" stroke-width="5.303" stroke-miterlimit="10" x1="-263.971" y1="-403.09" x2="-263.971" y2="-427.567"/>
<g>
	<path fill="none" stroke="#000000" stroke-width="10" stroke-linecap="round" stroke-miterlimit="10" d="M-354.713-192.88
		c-24.962-9.089-51.907-14.051-80.012-14.051c-129.156,0-233.858,104.702-233.858,233.858c0,50.071,15.744,96.46,42.541,134.505"/>
</g>
<circle fill="none" stroke="#000000" stroke-width="5" stroke-miterlimit="10" cx="-434.612" cy="26.875" r="233.858"/>
<circle fill="none" stroke="#000000" stroke-width="5" stroke-miterlimit="10" cx="-434.612" cy="26.875" r="233.858"/>
<path stroke="#000000" stroke-width="5" stroke-linejoin="round" stroke-miterlimit="10" d="M-414.39-206.097h0.088
	c20.794,1.789,40.812,6.287,59.693,13.16l-4.849,13.322v-0.025c-11.808-4.299-24.088-7.613-36.742-9.844h-0.126L-414.39-206.097z"/>
<path stroke="#000000" stroke-width="5" stroke-linejoin="round" stroke-miterlimit="10" d="M-243.39-107.768
	c26.854,38.07,42.636,84.512,42.636,134.643h14.173c0-45.572-12.303-88.265-33.75-124.962l0,0l-23.059-9.689"/>
<path stroke="#000000" stroke-width="5" stroke-linejoin="round" stroke-miterlimit="10" d="M-200.754,26.875
	c0,49.912-15.647,96.165-42.289,134.142v-26.589c17.895-31.798,28.115-68.492,28.115-107.578L-200.754,26.875z"/>
<path stroke="#000000" stroke-width="5" stroke-linejoin="round" stroke-miterlimit="10" d="M-514.114,246.559h-0.429
	c-45.11-16.506-83.709-46.515-110.921-85.126l-0.39,0.057l23.313,7.029l-23.502-7.086l23.542,7.086
	c20.591,24.376,46.389,44.205,75.685,57.771l12.272,20.269l-12.272-20.231l12.272,20.231"/>
<g>
	<g>
		<path fill="none" stroke="#000000" stroke-width="10" stroke-linecap="round" stroke-miterlimit="10" d="M918.206-124.199
			c9.089-24.962,14.051-51.907,14.051-80.012c0-129.156-104.702-233.858-233.858-233.858c-50.071,0-96.461,15.744-134.505,42.541"/>
	</g>
	<circle fill="none" stroke="#000000" stroke-width="10" stroke-miterlimit="10" cx="698.451" cy="-204.098" r="233.858"/>
	<circle fill="none" stroke="#000000" stroke-width="10" stroke-miterlimit="10" cx="698.451" cy="-204.098" r="233.858"/>
	<path stroke="#000000" stroke-width="10" stroke-linejoin="round" stroke-miterlimit="10" d="M931.423-183.875v0.088
		c-1.789,20.794-6.287,40.812-13.16,59.693l-13.322-4.849h0.025c4.299-11.808,7.612-24.088,9.844-36.742v-0.126L931.423-183.875z"/>
	<path stroke="#000000" stroke-width="10" stroke-linejoin="round" stroke-miterlimit="10" d="M833.094-12.875
		c-38.07,26.854-84.512,42.636-134.643,42.636v14.173c45.572,0,88.266-12.303,124.963-33.75l0,0l9.689-23.059"/>
	<path stroke="#000000" stroke-width="10" stroke-linejoin="round" stroke-miterlimit="10" d="M698.451,29.76
		c-49.912,0-96.164-15.647-134.142-42.289h26.59c31.798,17.895,68.491,28.115,107.578,28.115L698.451,29.76z"/>
	<path stroke="#000000" stroke-width="10" stroke-linejoin="round" stroke-miterlimit="10" d="M478.768-283.6v-0.429
		c16.506-45.11,46.515-83.709,85.126-110.921l-0.058-0.39l-7.028,23.313l7.086-23.502l-7.086,23.542
		c-24.377,20.591-44.205,46.389-57.771,75.685l-20.269,12.272l20.23-12.272l-20.23,12.272"/>
</g>
<g>
	<path fill="none" stroke="#000000" stroke-width="10" stroke-linecap="round" stroke-miterlimit="10" d="M1437.592,333.601
		c9.089-24.962,14.051-51.907,14.051-80.012c0-129.156-104.702-233.858-233.858-233.858c-50.071,0-96.461,15.744-134.505,42.541"/>
</g>
<circle fill="none" stroke="#000000" stroke-width="10" stroke-miterlimit="10" cx="1217.837" cy="253.702" r="233.858"/>
<circle fill="none" stroke="#000000" stroke-width="10" stroke-miterlimit="10" cx="1217.837" cy="253.702" r="233.858"/>
<path stroke="#000000" stroke-width="10" stroke-linejoin="round" stroke-miterlimit="10" d="M1450.809,273.924v0.088
	c-1.789,20.794-6.287,40.812-13.16,59.693l-26.642-9.697l0,0c4.299-11.808,6.987-21.774,9.219-34.429l0,0L1450.809,273.924z"/>
<path stroke="#000000" stroke-width="10" stroke-linejoin="round" stroke-miterlimit="10" d="M1352.479,444.924
	c-38.07,26.854-84.512,42.636-134.643,42.636v28.346c45.572,0,95.107-14.043,131.805-35.491l0,0l2.848-35.491"/>
<path stroke="#000000" stroke-width="10" stroke-linejoin="round" stroke-miterlimit="10" d="M1217.837,487.56
	c-49.912,0-96.164-15.647-134.142-42.289l33.825-12.18c31.798,17.895,61.229,26.123,100.316,26.123V487.56z"/>
<path stroke="#000000" stroke-width="10" stroke-linejoin="round" stroke-miterlimit="10" d="M998.153,174.2v-0.429
	c16.506-45.11,46.515-83.709,85.126-110.921l-0.058-0.39l2.249,34.045l-2.191-34.233l2.191,34.233
	c-24.377,20.591-40.624,41.611-54.19,70.907l-33.127,6.359l20.23-12.272l-20.23,12.272"/>
<line fill="none" stroke="#000000" stroke-width="10" stroke-linejoin="round" stroke-miterlimit="10" x1="1437.648" y1="333.706" x2="1217.838" y2="253.702"/>
<line fill="none" stroke="#000000" stroke-width="10" stroke-linejoin="round" stroke-miterlimit="10" x1="1434.195" y1="291.989" x2="1222.973" y2="255.571"/>
<line fill="none" stroke="#000000" stroke-width="10" stroke-linejoin="round" stroke-miterlimit="10" x1="1222.973" y1="255.571" x2="1018.422" y2="161.499"/>
<line fill="none" stroke="#000000" stroke-width="10" stroke-linejoin="round" stroke-miterlimit="10" x1="1222.973" y1="255.571" x2="1076.193" y2="85.774"/>
<line fill="none" stroke="#000000" stroke-width="10" stroke-linejoin="round" stroke-miterlimit="10" x1="1222.973" y1="255.571" x2="1110.285" y2="445.271"/>
<line fill="none" stroke="#000000" stroke-width="10" stroke-linejoin="round" stroke-miterlimit="10" x1="1222.973" y1="255.571" x2="1217.863" y2="473.386"/>
<line fill="none" stroke="#000000" stroke-width="17.4747" stroke-linejoin="round" stroke-miterlimit="10" x1="1224.893" y1="163.571" x2="1215.918" y2="593.733"/>
<line fill="none" stroke="#000000" stroke-width="17.6819" stroke-linejoin="round" stroke-miterlimit="10" x1="1176.947" y1="173.984" x2="1388.825" y2="549.57"/>
<circle fill="none" stroke="#000000" stroke-width="11.2121" stroke-miterlimit="10" cx="1217.837" cy="253.702" r="262.205"/>
<circle fill="none" stroke="#000000" stroke-width="8.7879" stroke-miterlimit="10" cx="1217.837" cy="253.702" r="205.512"/>
<g>
	<path fill="#222222" d="M-22.582,208.041c-10.613,0-20.592-4.133-28.098-11.638c-7.506-7.506-11.639-17.484-11.639-28.099
		s4.133-20.593,11.639-28.098c7.506-7.506,17.484-11.64,28.098-11.64c10.615,0,20.594,4.134,28.098,11.64
		c7.506,7.505,11.639,17.483,11.639,28.098s-4.133,20.593-11.639,28.099C-1.988,203.908-11.967,208.041-22.582,208.041z
		 M-22.582,130.231c-10.17,0-19.73,3.96-26.922,11.151c-7.189,7.191-11.15,16.752-11.15,26.922s3.961,19.73,11.15,26.922
		c7.191,7.19,16.752,11.151,26.922,11.151s19.73-3.961,26.922-11.151c7.191-7.191,11.152-16.752,11.152-26.922
		s-3.961-19.73-11.152-26.922S-12.412,130.231-22.582,130.231z"/>
	<g>
		<path fill="#222222" d="M13.977,183.26c-0.189,0-0.381-0.033-0.568-0.101c-0.863-0.314-1.309-1.27-0.994-2.133
			c1.484-4.076,2.236-8.363,2.236-12.742c0-9.947-3.873-19.299-10.906-26.332c-7.035-7.034-16.387-10.908-26.336-10.908
			c-7.719,0-15.127,2.342-21.418,6.773c-0.75,0.529-1.787,0.349-2.316-0.402s-0.35-1.789,0.4-2.318
			c6.855-4.828,14.924-7.38,23.334-7.38c10.838,0,21.025,4.219,28.688,11.882c7.662,7.662,11.883,17.85,11.883,28.686
			c0,4.768-0.82,9.438-2.438,13.881C15.295,182.841,14.656,183.26,13.977,183.26z"/>
	</g>
	<g>
		<path fill="#222222" d="M16.176,171.668v0.014c-0.297,3.46-1.047,6.79-2.189,9.932L9.555,180l0,0
			c0.715-1.965,1.162-3.622,1.533-5.728l0,0L16.176,171.668z"/>
		<path fill="#222222" d="M13.986,182.446c-0.094,0-0.189-0.017-0.285-0.051l-4.432-1.613c-0.207-0.075-0.377-0.229-0.469-0.431
			c-0.094-0.199-0.104-0.429-0.029-0.636c0.705-1.932,1.139-3.551,1.498-5.587c0.043-0.257,0.207-0.478,0.439-0.597l5.088-2.604
			c0.258-0.132,0.564-0.119,0.812,0.031c0.246,0.151,0.396,0.42,0.396,0.71c0,0.023,0,0.062-0.002,0.085
			c-0.299,3.477-1.051,6.889-2.236,10.145C14.645,182.236,14.326,182.446,13.986,182.446z M10.613,179.5l2.867,1.044
			c0.816-2.408,1.389-4.9,1.707-7.436l-3.355,1.717C11.521,176.502,11.15,177.927,10.613,179.5z"/>
	</g>
	<g>
		<path fill="#222222" d="M-0.182,200.116c-6.334,4.468-14.061,7.093-22.4,7.093v4.716c7.582,0,15.822-2.336,21.928-5.904l0,0
			l0.475-5.904"/>
		<path fill="#222222" d="M-22.582,212.756c-0.459,0-0.832-0.372-0.832-0.832v-4.716c0-0.459,0.373-0.831,0.832-0.831
			c7.904,0,15.482-2.4,21.92-6.941l0.479,0.68l0.832,0.066l-0.475,5.904c-0.02,0.271-0.174,0.515-0.408,0.652
			C-6.684,210.506-15.035,212.756-22.582,212.756z M-21.75,208.033v3.051c6.895-0.154,14.389-2.206,20.303-5.565l0.299-3.749
			C-7.312,205.728-14.385,207.881-21.75,208.033z"/>
	</g>
	<g>
		<path fill="#222222" d="M-22.582,207.208c-8.303,0-15.996-2.603-22.314-7.035l5.627-2.025c5.289,2.976,10.186,4.345,16.688,4.345
			V207.208z"/>
		<path fill="#222222" d="M-22.582,208.041c-8.209,0-16.092-2.484-22.793-7.186c-0.254-0.179-0.389-0.483-0.346-0.791
			c0.041-0.309,0.248-0.567,0.541-0.673l5.627-2.026c0.229-0.082,0.479-0.061,0.691,0.058c5.35,3.011,10.066,4.238,16.279,4.238
			c0.459,0,0.832,0.372,0.832,0.832v4.716C-21.75,207.668-22.123,208.041-22.582,208.041z M-43.068,200.399
			c5.887,3.768,12.633,5.819,19.654,5.97v-3.052c-5.924-0.109-10.752-1.403-15.93-4.259L-43.068,200.399z"/>
	</g>
	<g>
		<path fill="#222222" d="M-59.129,155.079v-0.072c2.746-7.505,7.738-13.926,14.162-18.452l-0.01-0.065l0.375,5.664l-0.365-5.695
			l0.365,5.695c-4.055,3.426-6.758,6.922-9.016,11.796l-5.512,1.058l3.367-2.042l-3.367,2.042"/>
		<path fill="#222222" d="M-59.129,155.838c-0.338,0-0.65-0.207-0.775-0.533c-0.029-0.074-0.047-0.15-0.053-0.227h-0.004v-0.059
			c0-0.089,0.012-0.177,0.039-0.26v-0.001c0,0,0,0,0-0.001v-0.001c0.004-0.012,0.008-0.024,0.012-0.036
			c2.758-7.535,7.672-13.985,14.221-18.674c0.133-0.235,0.379-0.401,0.67-0.42c0.457-0.027,0.854,0.318,0.883,0.777l0.365,5.695
			v0.001l0,0c0,0.001,0,0.001,0,0.001s0,0,0,0.001v0.001l0,0c0.012,0.209-0.053,0.403-0.172,0.557
			c-0.02,0.025-0.039,0.049-0.061,0.07c-0.023,0.023-0.045,0.044-0.068,0.063c-3.988,3.37-6.617,6.811-8.791,11.504
			c-0.111,0.243-0.334,0.417-0.598,0.468l-5.51,1.058C-59.025,155.833-59.078,155.838-59.129,155.838z M-54.93,152.964
			c0,0.144-0.039,0.285-0.109,0.41l0.85-0.163c2.188-4.607,4.83-8.062,8.73-11.421l-0.244-3.665
			c-5.129,3.92-9.133,9.006-11.721,14.874l1.23-0.746c0.393-0.238,0.904-0.112,1.143,0.28
			C-54.969,152.668-54.93,152.818-54.93,152.964z"/>
	</g>
</g>
<g>
	<path fill="none" stroke="#000000" stroke-width="100" stroke-linecap="round" stroke-miterlimit="10" d="M2881.346,1364.994
		c9.089-24.962,14.051-51.907,14.051-80.012c0-129.156-104.701-233.858-233.858-233.858c-50.071,0-96.461,15.744-134.505,42.541"/>
</g>
<path stroke="#000000" stroke-width="10" stroke-linejoin="round" stroke-miterlimit="10" d="M2894.562,1305.317v0.088
	c-1.789,20.794-6.287,40.812-13.16,59.693l-64.24-23.382l0,0c4.299-11.809,5.163-14.887,7.395-27.541l0,0L2894.562,1305.317z"/>
<path stroke="#000000" stroke-width="10" stroke-linejoin="round" stroke-miterlimit="10" d="M2796.233,1476.317
	c-38.07,26.854-84.512,42.636-134.643,42.636v68.346c45.572,0,114.896-19.271,151.593-40.719l0,0l-16.941-70.263"/>
<path stroke="#000000" stroke-width="10" stroke-linejoin="round" stroke-miterlimit="10" d="M2661.591,1518.953
	c-49.912,0-96.164-15.647-134.142-42.289l54.264-46.585c31.798,17.895,43.372,20.527,82.459,20.527L2661.591,1518.953z"/>
<path stroke="#000000" stroke-width="10" stroke-linejoin="round" stroke-miterlimit="10" d="M2441.907,1205.592v-0.429
	c16.506-45.11,46.515-83.709,85.126-110.921l-0.058-0.39l28.409,64.308l-28.352-64.496l28.352,64.496
	c-24.377,20.591-30.436,28.065-44.002,57.36l-69.476-10.357l69.476,10.357l-69.476-10.357"/>
<path stroke="#000000" stroke-width="20" stroke-linejoin="round" stroke-miterlimit="10" d="M2305.104,1801.38v0.088
	c-1.789,20.794-6.287,40.812-13.16,59.693l-97.244-35.394l0,0c4.299-11.807,3.669-8.822,5.9-21.477l0,0L2305.104,1801.38z"/>
<path stroke="#000000" stroke-width="20" stroke-linejoin="round" stroke-miterlimit="10" d="M2206.774,1972.38
	c-38.07,26.854-84.512,42.636-134.643,42.636l-1.919,103.347c45.572,0,134.016-23.779,170.713-45.227l0,0l-34.142-100.756"/>
<path stroke="#000000" stroke-width="20" stroke-linejoin="round" stroke-miterlimit="10" d="M2072.132,2015.016
	c-49.912,0-96.164-15.647-134.142-42.289l72.148-76.694c31.798,17.895,25.359,15.607,64.446,15.607L2072.132,2015.016z"/>
<path stroke="#000000" stroke-width="20" stroke-linejoin="round" stroke-miterlimit="10" d="M1852.448,1701.656v-0.429
	c16.506-45.11,46.515-83.709,85.126-110.921l-0.058-0.39l51.298,90.786l-51.24-90.975l51.24,90.975
	c-24.377,20.591-21.521,16.212-35.087,45.509l-101.279-24.984l101.279,24.984l-101.279-24.984"/>
<path fill="none" stroke="#000000" stroke-width="140" stroke-linecap="round" stroke-miterlimit="10" d="M2305.06,1801.38
	c0.578-6.702,0.878-13.483,0.878-20.335c0-129.156-104.702-233.858-233.858-233.858c-50.071,0-96.461,15.744-134.505,42.541"/>
<g>
	<circle fill="none" stroke="#000000" stroke-width="10" stroke-miterlimit="10" cx="657.91" cy="2000.9" r="233.858"/>
	<g>
		<path fill="none" stroke="#000000" stroke-width="20" stroke-linecap="round" stroke-miterlimit="10" d="M877.665,2080.799
			c9.089-24.962,14.051-51.907,14.051-80.012c0-129.156-104.702-233.858-233.858-233.858c-50.071,0-96.461,15.744-134.505,42.541"/>
	</g>
	<path stroke="#000000" stroke-width="10" stroke-linejoin="round" stroke-miterlimit="10" d="M890.882,2021.123v0.088
		c-1.789,20.794-6.287,40.812-13.16,59.693l-26.642-9.697l0,0c4.299-11.807,6.987-21.773,9.219-34.428l0,0L890.882,2021.123z"/>
	<path stroke="#000000" stroke-width="10" stroke-linejoin="round" stroke-miterlimit="10" d="M792.553,2192.123
		c-38.07,26.854-84.512,42.636-134.643,42.636v28.346c45.572,0,95.107-14.043,131.805-35.49l0,0l2.848-35.491"/>
	<path stroke="#000000" stroke-width="10" stroke-linejoin="round" stroke-miterlimit="10" d="M657.91,2234.758
		c-49.912,0-96.164-15.647-134.142-42.289l33.825-12.181c31.798,17.895,61.229,26.123,100.316,26.123V2234.758z"/>
	<path stroke="#000000" stroke-width="10" stroke-linejoin="round" stroke-miterlimit="10" d="M438.227,1921.398v-0.429
		c16.506-45.11,46.515-83.709,85.126-110.921l-0.058-0.39l2.249,34.045l-2.191-34.233l2.191,34.233
		c-24.377,20.591-40.624,41.61-54.19,70.907l-33.127,6.358l20.23-12.272l-20.23,12.272"/>
</g>
<text transform="matrix(1 0 0 1 73.498 172.7124)"><tspan x="0" y="0" font-family="'DINPro-Light'" font-size="8">fiumedesigns</tspan><tspan x="47.215" y="0" fill="#666666" font-family="'DINPro-Light'" font-size="8">.com</tspan></text>
<text transform="matrix(1 0 0 1 73.498 180.0942)" font-family="'DINPro-Light'" font-size="6">joo dias-oliveira</text>
<g>
	<path fill="#222222" stroke="#1D1D1B" stroke-width="1.2" stroke-linejoin="round" stroke-miterlimit="10" d="M14.947,27.475
		c-3.432,0-6.657-1.336-9.084-3.762c-2.427-2.427-3.763-5.652-3.763-9.084s1.336-6.657,3.763-9.083
		c2.427-2.427,5.652-3.763,9.084-3.763s6.657,1.336,9.084,3.763c2.426,2.426,3.763,5.652,3.763,9.083s-1.337,6.657-3.763,9.084
		C21.604,26.139,18.379,27.475,14.947,27.475z M14.947,2.32c-3.288,0-6.379,1.28-8.704,3.605C3.92,8.25,2.639,11.341,2.639,14.629
		c0,3.288,1.281,6.378,3.604,8.704c2.325,2.325,5.416,3.605,8.704,3.605s6.379-1.28,8.703-3.605
		c2.325-2.325,3.605-5.416,3.605-8.704c0-3.288-1.28-6.378-3.605-8.704C21.326,3.601,18.235,2.32,14.947,2.32z"/>
	<g>
		<path fill="#222222" stroke="#1D1D1B" stroke-width="1.2" stroke-linejoin="round" stroke-miterlimit="10" d="M26.766,19.464
			c-0.061,0-0.123-0.011-0.184-0.032c-0.278-0.102-0.423-0.411-0.321-0.689c0.48-1.318,0.723-2.704,0.723-4.12
			c0-3.216-1.252-6.239-3.525-8.513c-2.274-2.274-5.298-3.527-8.514-3.527c-2.496,0-4.891,0.757-6.925,2.19
			c-0.242,0.171-0.577,0.113-0.748-0.13C7.1,4.4,7.158,4.064,7.4,3.894c2.217-1.561,4.825-2.386,7.544-2.386
			c3.504,0,6.797,1.364,9.273,3.841c2.478,2.477,3.842,5.771,3.842,9.273c0,1.542-0.265,3.051-0.788,4.488
			C27.192,19.329,26.985,19.464,26.766,19.464z"/>
	</g>
	<g>
		<path fill="#222222" stroke="#1D1D1B" stroke-width="1.2" stroke-linejoin="round" stroke-miterlimit="10" d="M27.478,15.717
			v0.004c-0.097,1.118-0.339,2.195-0.708,3.21l-1.433-0.521l0,0c0.23-0.635,0.375-1.171,0.495-1.852l0,0L27.478,15.717z"/>
		<path fill="#222222" stroke="#1D1D1B" stroke-width="1.2" stroke-linejoin="round" stroke-miterlimit="10" d="M26.77,19.201
			c-0.03,0-0.062-0.005-0.093-0.016l-1.433-0.522c-0.066-0.024-0.122-0.074-0.151-0.139c-0.03-0.064-0.033-0.139-0.01-0.206
			c0.229-0.625,0.368-1.148,0.484-1.806c0.015-0.083,0.067-0.154,0.143-0.193l1.645-0.842c0.083-0.042,0.183-0.039,0.263,0.01
			c0.08,0.049,0.128,0.136,0.128,0.23c0,0.007,0,0.02,0,0.027c-0.097,1.124-0.34,2.227-0.724,3.279
			C26.982,19.133,26.879,19.201,26.77,19.201z M25.679,18.249l0.927,0.337c0.264-0.778,0.449-1.584,0.552-2.404l-1.084,0.555
			C25.973,17.279,25.853,17.74,25.679,18.249z"/>
	</g>
	<g>
		<path fill="#222222" stroke="#1D1D1B" stroke-width="1.2" stroke-linejoin="round" stroke-miterlimit="10" d="M22.189,24.913
			c-2.048,1.445-4.546,2.293-7.242,2.293v1.525c2.451,0,5.115-0.755,7.089-1.909l0,0L22.189,24.913"/>
		<path fill="#222222" stroke="#1D1D1B" stroke-width="1.2" stroke-linejoin="round" stroke-miterlimit="10" d="M14.947,29
			c-0.148,0-0.27-0.121-0.27-0.269v-1.525c0-0.148,0.121-0.269,0.27-0.269c2.556,0,5.005-0.776,7.087-2.244l0.154,0.22l0.269,0.021
			l-0.153,1.909c-0.007,0.088-0.056,0.167-0.132,0.211C20.087,28.272,17.388,29,14.947,29z M15.216,27.473v0.986
			c2.229-0.05,4.652-0.713,6.564-1.799l0.096-1.212C19.884,26.728,17.598,27.424,15.216,27.473z"/>
	</g>
	<g>
		<path fill="#222222" stroke="#1D1D1B" stroke-width="1.2" stroke-linejoin="round" stroke-miterlimit="10" d="M14.947,27.206
			c-2.685,0-5.171-0.841-7.214-2.274l1.819-0.655c1.709,0.962,3.292,1.405,5.395,1.405V27.206z"/>
		<path fill="#222222" stroke="#1D1D1B" stroke-width="1.2" stroke-linejoin="round" stroke-miterlimit="10" d="M14.947,27.475
			c-2.654,0-5.202-0.803-7.368-2.323c-0.083-0.058-0.126-0.156-0.112-0.256s0.08-0.184,0.175-0.218l1.819-0.655
			c0.073-0.026,0.154-0.02,0.224,0.019c1.729,0.973,3.254,1.37,5.263,1.37c0.148,0,0.269,0.12,0.269,0.269v1.524
			C15.216,27.355,15.096,27.475,14.947,27.475z M8.324,25.005c1.903,1.218,4.084,1.881,6.354,1.93v-0.986
			c-1.914-0.036-3.476-0.454-5.149-1.377L8.324,25.005z"/>
	</g>
	<g>
		<path fill="#222222" stroke="#1D1D1B" stroke-width="1.2" stroke-linejoin="round" stroke-miterlimit="10" d="M3.132,10.354V10.33
			C4.02,7.904,5.634,5.828,7.711,4.365L7.707,4.343l0.122,1.831L7.711,4.333l0.118,1.841C6.518,7.282,5.644,8.412,4.914,9.988
			L3.132,10.33l1.089-0.66l-1.089,0.66"/>
		<path fill="#222222" stroke="#1D1D1B" stroke-width="1.2" stroke-linejoin="round" stroke-miterlimit="10" d="M3.132,10.599
			c-0.109,0-0.21-0.067-0.251-0.172c-0.009-0.023-0.015-0.048-0.017-0.073H2.863v-0.019c0-0.029,0.004-0.057,0.013-0.084v0
			c0,0,0,0,0,0l0,0c0.001-0.004,0.002-0.008,0.003-0.012c0.892-2.436,2.48-4.521,4.598-6.037C7.52,4.125,7.6,4.071,7.693,4.065
			C7.841,4.056,7.97,4.168,7.979,4.316l0.118,1.841l0,0l0,0c0,0,0,0,0,0l0,0v0l0,0c0.004,0.068-0.017,0.13-0.056,0.18
			c-0.006,0.008-0.013,0.016-0.02,0.022C8.015,6.369,8.007,6.375,8,6.382c-1.29,1.09-2.14,2.202-2.843,3.719
			c-0.036,0.079-0.107,0.135-0.193,0.151l-1.781,0.342C3.165,10.597,3.148,10.599,3.132,10.599z M4.489,9.67
			c0,0.046-0.013,0.092-0.035,0.132L4.729,9.75C5.436,8.26,6.29,7.143,7.551,6.057L7.473,4.873C5.814,6.14,4.52,7.784,3.684,9.681
			L4.081,9.44C4.208,9.363,4.373,9.404,4.45,9.53C4.477,9.574,4.489,9.623,4.489,9.67z"/>
	</g>
</g>
<circle cx="175.951" cy="17.359" r="70.866"/>
<g>
	<path fill="#444444" d="M175.951,78.051c-16.211,0-31.451-6.312-42.916-17.775c-11.464-11.464-17.775-26.705-17.775-42.917
		s6.312-31.452,17.775-42.915C144.5-37.02,159.74-43.333,175.951-43.333c16.212,0,31.453,6.313,42.915,17.778
		c11.463,11.462,17.776,26.703,17.776,42.915s-6.313,31.453-17.776,42.917C207.404,71.738,192.163,78.051,175.951,78.051z
		 M175.951-40.792c-15.533,0-30.136,6.048-41.12,17.032c-10.979,10.983-17.029,25.586-17.029,41.119
		c0,15.533,6.05,30.135,17.029,41.119c10.984,10.982,25.587,17.032,41.12,17.032c15.532,0,30.135-6.049,41.119-17.032
		c10.983-10.984,17.033-25.586,17.033-41.119c0-15.533-6.05-30.135-17.033-41.119C206.086-34.743,191.483-40.792,175.951-40.792z"/>
	<g>
		<path fill="#444444" d="M231.788,40.203c-0.289,0-0.582-0.051-0.868-0.154c-1.318-0.48-1.999-1.939-1.518-3.257
			c2.267-6.226,3.414-12.773,3.414-19.461c0-15.193-5.915-29.476-16.656-40.219c-10.745-10.744-25.028-16.661-40.225-16.661
			c-11.789,0-23.104,3.577-32.713,10.346c-1.145,0.809-2.729,0.532-3.537-0.615s-0.534-2.732,0.611-3.541
			c10.471-7.374,22.794-11.271,35.639-11.271c16.554,0,32.113,6.443,43.815,18.148C231.455-14.781,237.9,0.78,237.9,17.33
			c0,7.281-1.253,14.414-3.723,21.201C233.802,39.563,232.826,40.203,231.788,40.203z"/>
	</g>
	<g>
		<path fill="#444444" d="M235.148,22.498v0.021c-0.455,5.284-1.6,10.37-3.345,15.168l-6.769-2.463l0,0
			c1.092-3.001,1.774-5.532,2.341-8.748l0,0L235.148,22.498z"/>
		<path fill="#444444" d="M231.804,38.958c-0.144,0-0.289-0.025-0.437-0.077l-6.768-2.465c-0.316-0.114-0.576-0.35-0.717-0.658
			c-0.143-0.304-0.158-0.654-0.044-0.971c1.076-2.95,1.738-5.423,2.288-8.533c0.065-0.392,0.315-0.729,0.672-0.912l7.771-3.978
			c0.393-0.202,0.861-0.183,1.241,0.047c0.375,0.231,0.604,0.642,0.604,1.085c0,0.036,0,0.095-0.002,0.13
			c-0.457,5.31-1.604,10.521-3.416,15.494C232.809,38.638,232.322,38.958,231.804,38.958z M226.651,34.46l4.38,1.595
			c1.246-3.678,2.121-7.484,2.606-11.357l-5.125,2.622C228.039,29.881,227.472,32.057,226.651,34.46z"/>
	</g>
	<g>
		<path fill="#444444" d="M210.164,65.947c-9.675,6.824-21.476,10.833-34.213,10.833v7.203c11.58,0,24.165-3.568,33.49-9.018l0,0
			l0.726-9.018"/>
		<path fill="#444444" d="M175.951,85.253c-0.701,0-1.271-0.568-1.271-1.271V76.78c0-0.701,0.57-1.27,1.271-1.27
			c12.072,0,23.646-3.666,33.479-10.602l0.729,1.038l1.271,0.102l-0.726,9.018c-0.03,0.415-0.265,0.786-0.623,0.997
			C200.232,81.817,187.479,85.253,175.951,85.253z M177.222,78.039v4.66c10.53-0.236,21.976-3.37,31.01-8.5l0.456-5.727
			C199.272,74.519,188.471,77.808,177.222,78.039z"/>
	</g>
	<g>
		<path fill="#444444" d="M175.951,76.78c-12.682,0-24.432-3.975-34.083-10.745l8.595-3.094c8.078,4.545,15.557,6.636,25.488,6.636
			V76.78z"/>
		<path fill="#444444" d="M175.951,78.051c-12.538,0-24.578-3.794-34.812-10.975c-0.389-0.273-0.594-0.738-0.528-1.208
			c0.062-0.471,0.378-0.867,0.826-1.028l8.594-3.095c0.349-0.125,0.731-0.093,1.057,0.088c8.17,4.598,15.374,6.473,24.864,6.473
			c0.7,0,1.271,0.568,1.271,1.271v7.203C177.222,77.482,176.651,78.051,175.951,78.051z M144.66,66.379
			c8.992,5.754,19.296,8.888,30.02,9.118v-4.661c-9.047-0.167-16.422-2.143-24.33-6.505L144.66,66.379z"/>
	</g>
	<g>
		<path fill="#444444" d="M120.131-2.84v-0.111c4.194-11.462,11.819-21.269,21.631-28.182l-0.016-0.101l0.574,8.651l-0.559-8.699
			l0.559,8.699c-6.194,5.232-10.323,10.572-13.771,18.016l-8.419,1.615l5.144-3.119l-5.144,3.119"/>
		<path fill="#444444" d="M120.131-1.68c-0.517,0-0.993-0.316-1.185-0.814c-0.044-0.113-0.071-0.229-0.08-0.346h-0.006V-2.93
			c0-0.136,0.018-0.271,0.06-0.397v-0.001c0,0,0,0,0-0.002v-0.001c0.006-0.018,0.012-0.037,0.018-0.055
			c4.212-11.509,11.717-21.36,21.721-28.521c0.203-0.359,0.579-0.613,1.022-0.642c0.698-0.042,1.304,0.486,1.349,1.188l0.558,8.699
			c0,0,0,0,0,0.001l0,0c0,0.001,0,0.001,0,0.001s0,0,0,0.001v0.001l0,0c0.018,0.319-0.081,0.616-0.263,0.85
			c-0.029,0.039-0.06,0.075-0.092,0.107c-0.035,0.036-0.069,0.067-0.104,0.097c-6.092,5.147-10.107,10.402-13.428,17.57
			c-0.17,0.372-0.51,0.638-0.913,0.715l-8.415,1.615C120.289-1.688,120.208-1.68,120.131-1.68z M126.545-6.07
			c0,0.219-0.061,0.436-0.168,0.626l1.299-0.249c3.34-7.037,7.376-12.314,13.333-17.443l-0.371-5.598
			c-7.835,5.987-13.95,13.755-17.902,22.718l1.879-1.14c0.6-0.364,1.381-0.171,1.745,0.428
			C126.484-6.522,126.545-6.293,126.545-6.07z"/>
	</g>
</g>
<text transform="matrix(1 0 0 1 143.7715 19.8354)"><tspan x="0" y="0" fill="#FFFFFF" font-family="'DINPro-Light'" font-size="8">fiumedesigns</tspan><tspan x="47.215" y="0" fill="#999999" font-family="'DINPro-Light'" font-size="8">.com</tspan></text>
<text transform="matrix(1 0 0 1 143.8438 27.3101)" fill="#FFFFFF" font-family="'DINPro-Light'" font-size="6">joo dias-oliveira</text>
</svg>
